# xmcd
#
# Track frame offsets: 
#        150
#        20166
#        31867
#        55128
#        68777
#        81599
#        95940
#        118247
#        140216
#        150476
#        164649
#
# Disc length: 2455 seconds
#
# Revision: 0
# Processed by: cddbd v1.5.2PL0 Copyright (c) Steve Scherf et al.
# Submitted via: ExactAudioCopy v0.99pb4
#
DISCID=a309950b
DTITLE=Sony B and Grandpa - Blues For Days
DYEAR=2008
DGENRE=Blues
TTITLE0=One Bourbon, One Scotch, One Beer
TTITLE1=I'll Play The Blues For You
TTITLE2=It Hurts Me, Too
TTITLE3=Get Some Insurance
TTITLE4=King Bee
TTITLE5=Key To The Highway
TTITLE6=The Rain
TTITLE7=Backdoor Man
TTITLE8=Bad, Bad Leroy Brown
TTITLE9=Payin' The Cost
TTITLE10=A Cold Day In Hell
EXTD=
EXTT0=
EXTT1=
EXTT2=
EXTT3=
EXTT4=
EXTT5=
EXTT6=
EXTT7=
EXTT8=
EXTT9=
EXTT10=
PLAYORDER=
